PathFileType	4	(X/Y/Z)	C:/Users/opensim2020/Desktop/walking_exp_matlab/subject06_walking23_straight_01.trc	
DataRate	CameraRate	NumFrames	NumMarkers	Units	OrigDataRate	OrigDataStartFrame	OrigNumFrames	
100.00	100.00	9	45	mm	100.00	830	106	
Frame#	Time	LFHD			RFHD			LBHD			RBHD			C7			T10			CLAV			STRN			RBAK			LSHO			LUPA			LELB			LFRM			LWRA			LWRB			LFIN			RSHO			RUPA			RELB			RFRM			RWRA			RWRB			RFIN			LASI			RASI			LPSI			RPSI			LTHI			LKNE			LTIB			LANK			LHEE			LTOE			RTHI			RKNE			RTIB			RANK			RHEE			RTOE			*39			*40			*41			*42			*43			*44			
		X1	Y1	Z1	X2	Y2	Z2	X3	Y3	Z3	X4	Y4	Z4	X5	Y5	Z5	X6	Y6	Z6	X7	Y7	Z7	X8	Y8	Z8	X9	Y9	Z9	X10	Y10	Z10	X11	Y11	Z11	X12	Y12	Z12	X13	Y13	Z13	X14	Y14	Z14	X15	Y15	Z15	X16	Y16	Z16	X17	Y17	Z17	X18	Y18	Z18	X19	Y19	Z19	X20	Y20	Z20	X21	Y21	Z21	X22	Y22	Z22	X23	Y23	Z23	X24	Y24	Z24	X25	Y25	Z25	X26	Y26	Z26	X27	Y27	Z27	X28	Y28	Z28	X29	Y29	Z29	X30	Y30	Z30	X31	Y31	Z31	X32	Y32	Z32	X33	Y33	Z33	X34	Y34	Z34	X35	Y35	Z35	X36	Y36	Z36	X37	Y37	Z37	X38	Y38	Z38	X39	Y39	Z39	X40	Y40	Z40	X41	Y41	Z41	X42	Y42	Z42	X43	Y43	Z43	X44	Y44	Z44	X45	Y45	Z45	

93	0.920	1341.57214	408.27914	1658.01697	1472.97546	417.48538	1660.17981	1356.05627	274.79285	1607.44983	1485.23389	285.17334	1614.07874	1418.04382	276.26273	1452.77795	1432.03235	243.70290	1124.02136	1426.72314	386.52112	1376.69934	1429.45398	429.00531	1202.43933	1497.97253	200.01949	1285.96606	1261.70569	338.29401	1401.84229	1189.53015	332.70697	1200.00940	1175.91687	323.32913	1088.37244	1152.20898	345.53928	940.06549	1198.21826	395.88193	821.46191	1150.68848	342.90799	821.28931	1153.93420	379.69931	737.64032	1583.83337	332.06613	1415.30164	1675.94653	269.53497	1226.88574	1690.54236	264.02686	1104.30957	1709.01074	275.62695	984.93842	1676.13989	333.67209	845.63580	1717.22083	281.29907	847.38977	1717.32727	317.34030	771.00513	1340.71313	432.51260	968.60901	1558.45398	407.97256	971.03748	1352.07715	273.41275	992.08215	1518.79614	261.14877	989.08252	1288.71252	401.00354	649.64813	1325.34802	417.75803	489.15250	1341.64563	366.76877	236.19930	1393.19055	343.14853	69.85360	1437.49207	298.36133	58.91579	1401.68848	485.32675	39.95649	1609.90662	412.84024	633.97992	1593.35327	452.96280	513.52832	1585.92651	282.70755	325.49057	1542.18860	147.32419	198.77794	1495.17383	103.52876	204.64531	1548.76660	232.57130	70.48125	1403.46301	313.08725	1704.70117															 
94	0.930	1341.72729	422.89282	1659.25146	1472.92566	432.01941	1661.13159	1356.25867	289.11267	1609.12354	1485.41907	299.64487	1615.57007	1418.02515	290.15958	1454.09277	1431.42224	257.64270	1125.44641	1426.56787	400.55368	1377.99854	1429.13196	443.10992	1203.80164	1497.36328	214.08290	1287.22034	1261.73486	352.39096	1403.58667	1188.58545	349.59116	1202.10229	1174.45325	343.06775	1090.18237	1150.85889	370.05603	942.70190	1196.80884	424.89374	826.23541	1149.66199	371.91385	823.81219	1152.97546	411.77011	741.80072	1583.68311	345.83084	1416.57166	1675.31860	282.32474	1228.41638	1689.50012	275.73929	1105.69751	1708.28870	284.06363	986.00171	1676.28857	337.60098	844.53632	1717.51599	285.17892	848.30072	1717.65747	318.12512	770.28912	1339.82654	445.46808	969.20410	1557.41321	422.65771	972.98724	1352.24182	286.83459	993.43823	1519.16370	275.74634	991.05249	1288.93799	408.81717	649.64618	1324.65686	422.41177	488.64047	1341.31030	368.05460	236.43779	1393.11902	343.39322	70.09737	1437.23523	298.39789	59.30741	1401.50720	485.42538	39.86998	1609.24036	433.50897	637.76453	1591.57935	476.08176	518.35107	1585.49451	311.72009	323.68674	1543.07385	182.37207	190.30553	1495.95178	138.20378	192.57622	1552.61267	275.66324	68.51453	1403.69153	327.81763	1706.16162															 
95	0.940	1341.89160	437.30103	1660.17480	1473.00122	446.51352	1661.83447	1356.47034	303.47305	1610.46912	1485.56982	314.02606	1616.69690	1417.90979	304.46207	1455.06812	1430.88843	271.63269	1126.61621	1426.45459	414.61020	1379.00171	1428.67847	457.13348	1204.81189	1496.77747	228.13820	1288.18787	1261.77576	366.36749	1404.97620	1187.94324	366.43414	1203.82861	1173.18701	361.91064	1091.81189	1149.58447	394.36356	945.20471	1195.84265	453.40564	830.83899	1148.92102	400.59128	826.44458	1152.20142	444.02295	746.26758	1583.52808	359.72900	1417.47778	1674.70178	294.90726	1229.62769	1688.76709	287.15195	1106.90845	1707.77661	292.36234	986.92896	1676.42456	341.75577	843.50580	1717.79834	289.28467	849.28064	1718.02673	319.24142	769.79871	1338.71045	458.27972	969.42743	1556.28516	437.48877	974.43701	1352.54797	299.76172	994.45392	1519.57483	290.35153	992.67407	1288.17847	417.30829	649.62177	1324.01563	427.01974	488.08810	1340.67346	369.50253	236.59395	1393.19580	343.56223	70.32333	1437.59888	298.43610	60.12385	1401.26379	485.56836	39.71056	1608.67261	453.72742	641.27228	1589.92603	498.31436	522.82391	1585.10999	340.85797	321.24881	1543.71289	218.21564	181.29051	1496.31079	173.92039	180.29248	1556.21423	319.14310	66.72941	1403.97424	342.44321	1707.30737															 
96	0.950	1342.08472	451.74902	1660.87537	1473.11328	461.00180	1662.27991	1356.70142	317.80273	1611.39148	1485.76587	328.39130	1617.36743	1417.84753	318.56149	1455.73547	1430.39905	285.63458	1127.37036	1426.35144	428.68283	1379.71338	1428.19995	471.14563	1205.45947	1496.28027	242.14442	1288.87939	1261.74475	380.40836	1406.01404	1186.93909	383.03003	1205.30920	1171.71558	381.09164	1093.09570	1148.32068	418.39581	947.63245	1194.69373	482.35016	836.08429	1148.45044	429.25464	829.11389	1151.64172	476.14874	750.98199	1583.41614	373.74591	1418.00598	1674.12476	307.22015	1230.44421	1688.01355	298.42795	1107.86072	1707.39856	300.55173	987.78473	1676.68494	346.18808	842.55664	1718.20544	293.66800	850.34192	1718.32886	320.65527	769.61072	1337.37427	470.91949	969.33154	1554.99268	452.41360	975.42749	1352.99719	312.90085	994.95581	1520.05652	305.00635	993.87170	1288.10669	424.92822	649.28650	1323.41260	431.58456	487.45230	1340.62866	371.17935	236.65120	1393.48975	343.88809	70.41900	1437.39038	298.59125	60.77122	1401.04309	485.73950	39.57605	1608.33252	473.60397	644.50226	1588.51294	519.95148	527.10663	1584.77942	370.20203	318.15805	1544.10852	254.76465	172.00122	1496.43518	210.69481	167.84348	1559.70374	362.90948	65.28432	1404.29517	356.96591	1708.10181															 
97	0.960	1342.30139	466.09659	1661.24438	1472.99268	475.31064	1662.30420	1356.99622	332.08658	1611.95105	1486.02417	342.79562	1617.82654	1417.77991	332.80984	1456.16992	1430.12036	299.49774	1127.82935	1426.19946	442.80743	1380.02856	1427.65625	485.12479	1205.70544	1495.69214	256.34048	1289.21130	1261.73303	394.43527	1406.65430	1186.29285	399.67569	1206.34229	1170.32971	399.75098	1094.17163	1147.15540	442.21652	949.85785	1193.74365	511.25803	841.63489	1147.95422	458.22144	831.87817	1151.24902	508.33777	756.08698	1583.34717	387.86191	1418.17285	1673.44946	319.76752	1231.13049	1687.34521	309.63275	1108.54858	1707.09351	308.86624	988.41266	1676.91003	350.56406	841.64325	1718.34229	298.19583	851.18030	1718.22437	322.52026	769.25470	1335.99719	483.38968	968.84302	1553.63306	467.35681	976.03430	1353.31079	325.41034	995.12347	1520.75696	319.30460	994.74542	1288.08948	431.60608	649.05450	1322.84058	436.22507	486.73425	1340.92310	373.23935	236.53053	1393.51379	344.00732	70.73294	1437.59094	298.93677	61.29648	1400.89502	485.93979	39.48505	1608.40405	493.43051	647.41913	1587.41565	540.74683	530.78894	1584.68994	399.53708	314.73959	1544.26904	292.16394	162.53421	1496.59265	248.34274	155.23653	1561.69299	406.58575	63.43201	1404.62219	371.42044	1708.49963															 
98	0.970	1342.55798	480.43759	1661.29346	1473.08850	489.69263	1662.12659	1357.22278	346.41968	1612.12744	1486.26282	357.18060	1617.76575	1417.76428	347.10260	1456.28394	1429.90100	313.43951	1127.82947	1426.08069	456.96384	1380.00049	1427.05566	499.10001	1205.58850	1495.15002	270.50085	1289.31262	1261.74792	408.49289	1406.90564	1185.36768	416.07129	1207.11255	1169.06372	418.15430	1094.87585	1146.04468	466.01523	952.18555	1192.74695	539.87048	847.38080	1147.75061	486.77914	834.81592	1150.94800	540.51257	761.46826	1583.25806	402.15182	1417.92017	1672.90784	332.07339	1231.27173	1686.81006	320.82538	1108.92236	1706.70715	317.44315	988.85132	1677.30920	355.25375	840.70825	1718.65320	303.03741	851.99701	1719.02271	324.94675	769.33197	1334.53430	495.68060	968.09418	1552.19604	482.31775	976.28729	1353.81042	337.91916	994.93951	1521.43311	333.91470	995.20398	1288.63196	439.22281	648.30957	1322.39185	440.91586	485.92102	1341.42651	375.49649	236.38631	1393.74170	344.35431	70.93381	1437.63635	300.15433	61.29943	1400.74365	486.20398	39.42836	1608.10852	512.30707	649.83807	1586.56030	561.15210	534.10699	1584.57068	429.04428	311.13019	1544.42517	330.36313	152.95189	1496.23572	287.36359	142.57057	1563.25012	450.71973	61.47846	1405.00366	385.76782	1708.58301															 
99	0.980	1342.84277	494.72934	1661.06140	1473.25366	504.00098	1661.69446	1357.52356	360.72409	1611.89575	1486.56812	371.51065	1617.37085	1417.71436	361.42911	1456.06445	1429.86829	327.08136	1127.73181	1425.92578	471.17355	1379.58826	1426.46313	513.04169	1205.14380	1494.65186	284.59131	1289.10315	1261.76941	422.69711	1406.79614	1184.88293	432.46680	1207.38062	1167.68652	436.60461	1095.24878	1145.10278	489.47638	954.37244	1191.89368	568.42145	853.45581	1147.59998	515.36511	837.84619	1150.80151	572.37946	767.25458	1583.18835	416.49612	1417.29907	1672.25513	344.77005	1231.30469	1686.28210	332.07101	1109.05933	1706.57605	326.03922	989.06946	1677.84424	360.26797	839.80267	1719.00891	308.16248	852.61621	1719.65332	327.73743	769.31104	1332.97925	507.90009	967.01849	1550.75598	497.28134	976.24274	1354.45227	350.39456	994.51013	1522.12671	348.60138	995.22473	1288.18616	447.28738	647.85272	1321.87366	445.91412	485.06195	1341.95972	377.45053	236.54602	1393.95959	344.63565	71.10806	1437.98279	300.43546	61.69091	1400.70984	486.36145	39.38420	1608.30847	531.20703	651.95135	1586.02075	580.81525	536.82056	1584.51917	458.52277	307.16916	1544.46484	369.19162	143.41811	1496.06030	326.62933	130.68399	1563.53369	494.47028	59.22154	1405.40942	400.05038	1708.20691															 
100	0.990	1343.09705	508.99350	1660.57104	1473.59241	518.31805	1660.93030	1357.81006	375.03528	1611.27881	1486.75281	385.97141	1616.50928	1417.72925	375.79428	1455.53369	1429.88562	340.99615	1127.15674	1425.77515	485.40604	1378.85339	1425.72559	526.91772	1204.29480	1494.22534	298.78543	1288.64124	1261.73047	436.83112	1406.37305	1184.31140	448.69205	1207.35559	1166.58264	454.67627	1095.30981	1144.11218	512.92328	956.51312	1191.17786	596.31140	859.71350	1147.51697	543.64703	841.19153	1150.77417	604.14844	773.50720	1583.12817	430.92526	1416.35474	1671.81982	357.31281	1230.87207	1685.90686	343.44012	1108.89758	1706.50928	334.80484	989.09827	1678.55591	365.53314	838.80298	1719.39539	313.50812	853.11664	1720.59998	331.33798	769.45679	1331.53687	519.81952	965.81720	1549.34619	512.19971	975.79919	1355.23303	362.90298	993.75116	1522.84314	363.17694	994.86316	1289.06042	454.72260	647.14825	1321.81006	450.71936	484.18692	1342.03027	379.72568	236.51094	1394.13123	344.96228	71.23887	1438.57788	300.73456	62.05191	1400.68811	486.46646	39.38356	1608.63318	549.67145	653.62592	1585.80811	600.01648	539.05042	1584.57373	488.20709	302.91403	1544.57813	408.68338	134.16861	1496.02429	366.91519	119.12264	1563.55396	538.85315	57.31288	1405.80005	414.33945	1707.55029															 
101	1.000	1343.38428	523.03357	1659.69226	1473.73621	532.63885	1659.92334	1358.14758	389.37726	1610.37317	1487.15454	400.36731	1615.46008	1417.68445	390.32721	1454.73157	1430.03821	354.87805	1126.41528	1425.59326	499.65842	1377.78662	1425.00671	540.78577	1203.13928	1493.87012	312.99121	1287.92432	1261.71240	450.97073	1405.59241	1183.66296	464.74048	1207.02991	1165.64783	472.36676	1095.05127	1143.52979	535.52850	958.58105	1190.28809	624.09100	866.29480	1147.33997	571.84851	844.73181	1150.67090	635.59723	780.19250	1583.11621	445.43835	1415.08264	1671.36865	370.15448	1230.21460	1685.52612	355.02386	1108.44043	1706.64844	343.70090	989.03076	1679.38647	371.11267	837.76575	1719.82837	319.25934	853.47394	1721.19397	334.89566	769.13055	1329.99304	532.28900	964.44623	1548.11597	527.08862	975.09039	1356.01135	375.36026	992.81561	1523.62024	377.76773	994.19092	1289.32690	463.02631	645.83716	1321.51331	456.41895	482.98029	1342.31995	382.12366	236.25581	1394.37012	345.24713	71.42282	1439.07617	300.40366	62.88157	1400.57092	486.69559	39.47554	1608.72510	567.64240	654.89587	1585.69727	618.60327	540.68237	1584.81323	518.19672	298.41806	1544.68213	448.88223	125.29224	1496.47791	407.72610	108.16341	1562.35876	583.17181	55.70330	1406.19641	428.63257	1706.57227															 
